<?xml version="1.0" encoding="UTF-8"?>
<svg width="16px" height="16px" viewBox="0 0 16 16" version="1.1" xmlns="http://www.w3.org/2000/svg" xmlns:xlink="http://www.w3.org/1999/xlink">
    <!-- Generator: Sketch 49.1 (51147) - http://www.bohemiancoding.com/sketch -->
    <title>icon_2d</title>
    <desc>Created with Sketch.</desc>
    <defs></defs>
    <g id="icon_2d" stroke="none" stroke-width="1" fill="none" fill-rule="evenodd">
        <path d="M14.0314102,2.32331855 L1.96724538,2.32331855 C1.43266443,2.32431308 1.00136137,2.75895453 1,3.29829539 L1,13.3487361 C1.00069772,13.8887285 1.43470651,14.3226155 1.96724538,14.3233185 L14.0314103,14.3233185 C14.5639321,14.3219811 14.9993023,13.8887285 15,13.3487361 L15,3.29829539 C14.9993023,2.758543 14.5659742,2.32361004 14.0314102,2.32331855 Z M11.2521135,13.2392355 L6.70162379,8.58028307 C6.61806894,8.49478827 6.50396805,8.4461766 6.38442162,8.44547358 C6.2648752,8.44478771 6.15075731,8.49202761 6.06584106,8.577591 L2.07591773,12.5886279 L2.07591773,10.6505228 L9.28123976,3.40673286 L11.1882646,3.40673284 L10.0614992,4.54506891 C10.056326,4.54980148 10.0512208,4.55465406 10.0462347,4.55967813 C10.0407722,4.56519946 10.0354628,4.5708408 10.0303236,4.5765679 L7.6600372,6.97121118 C7.48613758,7.14677902 7.4854739,7.43112727 7.65865879,7.6074153 L13.1802908,13.2392355 L11.2521135,13.2392355 Z M8.012329,3.40675 L2.07591773,9.37483949 L2.07591773,3.40675 L8.012329,3.40675 Z M9.99463833,13.2392355 L2.69769523,13.2392355 L6.37963978,9.53785574 L9.99463833,13.2392355 Z M8.60895497,7.29155093 L10.3640155,5.51838251 L12.0812636,7.24839199 L10.3135252,9.03018534 L8.60895497,7.29155093 Z M10.943437,9.67268239 L13.0322405,7.56770291 C13.2067697,7.39108909 13.2067697,7.10536909 13.0315427,6.92914965 L10.9968712,4.87898905 L12.4540612,3.40675 L13.9240652,3.40675 L13.9240652,12.712892 L10.943437,9.67268239 Z" id="Shape" fill="#666666" fill-rule="nonzero"></path>
    </g>
</svg>