<?xml version="1.0" encoding="UTF-8"?>
<svg width="16px" height="16px" viewBox="0 0 16 16" version="1.1" xmlns="http://www.w3.org/2000/svg" xmlns:xlink="http://www.w3.org/1999/xlink">
    <!-- Generator: Sketch 49.1 (51147) - http://www.bohemiancoding.com/sketch -->
    <title>icon_3d</title>
    <desc>Created with Sketch.</desc>
    <defs></defs>
    <g id="icon_3d" stroke="none" stroke-width="1" fill="none" fill-rule="evenodd">
        <path d="M15,8 C15,4.28126367 12.0846432,1.23142304 8.41894336,1.01378039 C8.34340693,1.00546841 8.26765219,1 8.19080589,1 C8.1681013,1 8.14539671,1.0024061 8.12269212,1.00306231 C8.08186751,1.0024061 8.04126123,1 8,1 C4.14021956,1 1,4.14017874 1,8 C1,11.8598213 4.14021956,15 8,15 C8.04126123,15 8.08186751,14.9975939 8.12291043,14.996719 C8.14561502,14.9975939 8.16831961,15 8.1910242,15 C8.26787051,15 8.34362525,14.9945316 8.41916168,14.9862196 C12.0846432,14.768577 15,11.7191738 15,8 Z M13.6975424,10.2534217 C13.4569611,10.183426 12.8526697,10.0314043 11.7864271,9.90628711 C11.8746257,9.30213737 11.922873,8.66364603 11.922873,8 C11.922873,7.47700144 11.8927458,6.96997063 11.8370758,6.48240736 C13.187999,6.32076121 13.7798466,6.11711769 13.8195796,6.10311855 L13.6569361,5.643991 C13.9603917,6.36975813 14.128493,7.16552089 14.128493,8 C14.128493,8.79554403 13.9745821,9.55521529 13.6975424,10.2534217 Z M4.90933757,8 C4.90933757,7.5104681 4.94164795,7.03252922 5.00081088,6.57274546 C5.70880114,6.62852322 6.5554204,6.66964565 7.55049277,6.67927005 L7.55049277,9.71511155 C6.58183633,9.72451721 5.75399201,9.76388975 5.05779067,9.81726143 C4.96173278,9.24045373 4.90933757,8.62952317 4.90933757,8 Z M8.42221806,1.93312918 C9.49282684,2.2439535 10.4095247,3.73354791 10.8201722,5.707862 C10.1602108,5.76057746 9.36533184,5.79907505 8.42221806,5.80804324 L8.42221806,1.93312918 Z M7.55049277,1.94384726 L7.55049277,5.80760577 C6.61763973,5.79820011 5.81926772,5.76013999 5.1481724,5.70873695 C5.56711576,3.75914004 6.49123627,2.2807012 7.55049277,1.94384726 Z M7.55049277,10.5869946 L7.55049277,14.055934 C6.56262476,13.7418286 5.69220933,12.4348791 5.23964571,10.6788638 C5.89131112,10.6309606 6.65999251,10.5959628 7.55049277,10.5869946 Z M8.42221806,14.0668708 L8.42221806,10.5867758 C9.32210578,10.5953065 10.0877308,10.6316168 10.7311003,10.6814887 C10.2861776,12.4604712 9.42122007,13.7768265 8.42221806,14.0668708 Z M8.42221806,9.71511155 L8.42221806,6.67970752 C9.42252993,6.67030186 10.264128,6.62808575 10.9627308,6.57033936 C11.0217761,7.04466917 11.0513781,7.52221388 11.051366,8.00021874 C11.051366,8.63083557 11.0007173,9.24242234 10.9077158,9.820105 C10.2198104,9.76432724 9.39589572,9.72429849 8.42221806,9.71511155 Z M13.4960392,5.29226298 C13.3641779,5.33338541 12.8129366,5.49021936 11.708271,5.62080495 C11.4620135,4.30904319 11.0168725,3.18780077 10.4376871,2.37847634 C11.7685254,2.95790887 12.8546345,3.99581275 13.4960392,5.29226298 Z M5.90986776,2.23892256 C5.19751122,3.05852758 4.6159244,4.23707893 4.29849676,5.63086682 C3.30953718,5.52346728 2.71681637,5.39725642 2.47950972,5.3399475 C3.17156312,3.90941191 4.40394212,2.78685706 5.90986776,2.23892256 Z M2.15509605,6.15692769 C2.32319735,6.20264358 2.95892589,6.36122742 4.14109282,6.49225049 C4.07131162,6.99186449 4.036297,7.49573638 4.0363024,8.00021874 C4.0363024,8.66014624 4.09590195,9.2951378 4.20331213,9.89622524 C3.18815495,10.0060309 2.5637787,10.1374914 2.28368263,10.2052997 C2.01843188,9.52043622 1.87150698,8.77738891 1.87150698,8 C1.87150698,7.35800888 1.97127619,6.73876633 2.15509605,6.15692769 Z M2.66616766,11.0124367 C2.9835953,10.9448472 3.55186501,10.8420411 4.39346307,10.7536716 C4.72486277,11.9801262 5.26387849,13.0178114 5.90986776,13.7608587 C4.53012725,13.2588588 3.38158058,12.2741079 2.66616766,11.0124367 Z M10.4376871,13.6213049 C10.9592378,12.8931317 11.3720684,11.9120993 11.6288049,10.7667958 C12.4939808,10.8663209 13.0371445,10.9826886 13.3111278,11.052028 C12.6559693,12.187707 11.6484531,13.0943691 10.4376871,13.6213049 Z" id="Shape" fill="#666666" fill-rule="nonzero"></path>
    </g>
</svg>